<svg width="177" height="184" viewBox="0 0 177 184" fill="none" xmlns="http://www.w3.org/2000/svg">
<g filter="url(#filter0_di_4703_12)">
<path d="M159.09 15.5084C154.658 10.838 147.499 10.838 143.067 15.5084L90.4018 70.8963C88.8239 72.5558 86.1776 72.5544 84.6014 70.8934L31.9327 15.3887C27.501 10.7183 20.342 10.7183 15.9102 15.3887C11.4785 20.059 11.4785 27.6035 15.9102 32.2739L68.8649 88.08C70.3295 89.6234 70.3295 92.0432 68.8649 93.5866L15.9102 149.393C11.4785 154.063 11.4785 161.608 15.9102 166.278C20.342 170.948 27.501 170.948 31.9327 166.278L84.5985 110.776C86.1758 109.114 88.8243 109.114 90.4016 110.776L143.067 166.278C147.499 170.948 154.658 170.948 159.09 166.278C163.522 161.608 163.522 154.063 159.09 149.393L106.135 93.5866C104.671 92.0432 104.671 89.6234 106.135 88.08L159.09 32.2739C163.408 27.7233 163.408 20.059 159.09 15.5084Z" fill="#60C2AA"/>
<path d="M159.344 15.2675C154.774 10.4518 147.384 10.4517 142.814 15.2672L142.813 15.2675L90.1482 70.6552C88.7083 72.1694 86.2936 72.1682 84.8553 70.6525L32.1866 15.1477C27.6169 10.3319 20.2261 10.3319 15.6563 15.1477C11.0965 19.9532 11.0965 27.7094 15.6563 32.5148L68.611 88.3209C69.9474 89.7293 69.9474 91.9374 68.611 93.3457L15.6563 149.152C11.0965 153.957 11.0965 161.713 15.6564 166.519C20.2261 171.335 27.6169 171.335 32.1866 166.519L84.8524 111.017C86.2916 109.5 88.7085 109.5 90.1478 111.017L142.813 166.519C147.383 171.335 154.774 171.335 159.344 166.519C163.904 161.713 163.904 153.957 159.344 149.152L106.389 93.3457C105.053 91.9373 105.053 89.7293 106.389 88.3209L159.344 32.5148C163.79 27.8291 163.79 19.9532 159.344 15.2675Z" stroke="white" stroke-width="0.7"/>
</g>
<defs>
<filter id="filter0_di_4703_12" x="0.886475" y="0.185852" width="175.227" height="183.295" filterUnits="userSpaceOnUse" color-interpolation-filters="sRGB">
<feFlood flood-opacity="0" result="BackgroundImageFix"/>
<feColorMatrix in="SourceAlpha" type="matrix" values="0 0 0 0 0 0 0 0 0 0 0 0 0 0 0 0 0 0 127 0" result="hardAlpha"/>
<feOffset dx="1" dy="1"/>
<feGaussianBlur stdDeviation="6"/>
<feColorMatrix type="matrix" values="0 0 0 0 0.420718 0 0 0 0 0.290978 0 0 0 0 0.338156 0 0 0 0.2 0"/>
<feBlend mode="normal" in2="BackgroundImageFix" result="effect1_dropShadow_4703_12"/>
<feBlend mode="normal" in="SourceGraphic" in2="effect1_dropShadow_4703_12" result="shape"/>
<feColorMatrix in="SourceAlpha" type="matrix" values="0 0 0 0 0 0 0 0 0 0 0 0 0 0 0 0 0 0 127 0" result="hardAlpha"/>
<feOffset dx="2" dy="2"/>
<feGaussianBlur stdDeviation="5"/>
<feComposite in2="hardAlpha" operator="arithmetic" k2="-1" k3="1"/>
<feColorMatrix type="matrix" values="0 0 0 0 0.311889 0 0 0 0 0.612384 0 0 0 0 0.54168 0 0 0 0.6 0"/>
<feBlend mode="normal" in2="shape" result="effect2_innerShadow_4703_12"/>
</filter>
</defs>
</svg>
